<svg width="156" height="22" viewBox="0 0 156 22" fill="none" xmlns="http://www.w3.org/2000/svg">
<path d="M61.1561 9.85803L59.638 12.9441L57.3359 17.4756H55.3429L53.1113 13.2055L51.4273 9.85803H51.3433V19.8254H48.6162V3.47449H51.1569L54.2748 9.70123L56.2906 13.9031H56.4337L58.4267 9.65351L61.4651 3.47449H63.9649V19.8254H61.2515V9.85803H61.1561Z" fill="black"/>
<path d="M66.8989 4.70181C66.8941 4.51054 66.9285 4.32031 67 4.14286C67.0715 3.96541 67.1787 3.8045 67.3148 3.67007C67.4453 3.53501 67.6023 3.42835 67.7759 3.35679C67.9495 3.28522 68.1361 3.2503 68.3238 3.2542C68.6101 3.25636 68.8894 3.3427 69.1269 3.50245C69.3645 3.66219 69.5498 3.8883 69.6598 4.1526C69.7698 4.4169 69.7996 4.70772 69.7455 4.98883C69.6914 5.26994 69.5558 5.52893 69.3555 5.73354C69.2211 5.86968 69.0602 5.97682 68.8828 6.04835C68.7053 6.11988 68.5151 6.15427 68.3238 6.14941C68.1361 6.15331 67.9495 6.11839 67.7759 6.04682C67.6023 5.97526 67.4453 5.8686 67.3148 5.73354C67.1784 5.59927 67.0712 5.4384 66.9996 5.2609C66.9281 5.08341 66.8938 4.8931 66.8989 4.70181ZM67.0898 19.8187V8.07879H69.6033V19.8255L67.0898 19.8187Z" fill="black"/>
<path d="M75.6594 16.3847C75.6594 16.9529 75.7784 17.3089 76.0162 17.4528C76.2435 17.5937 76.698 17.6664 77.3457 17.6664L77.3911 19.8481C77.1661 19.8942 76.9384 19.9261 76.7093 19.9435C76.4821 19.9594 76.2821 19.9685 76.0912 19.9685C75.5756 19.9863 75.061 19.9092 74.5732 19.7413C74.2241 19.6114 73.9164 19.39 73.6823 19.1004C73.46 18.8097 73.3104 18.4699 73.246 18.1096C73.1711 17.6743 73.1354 17.2332 73.1392 16.7915V2.83362H75.6594V16.3847Z" fill="black"/>
<path d="M79.1433 19.8254V2.83362H81.659V11.8283H83.0225C83.4477 11.8398 83.8686 11.7419 84.2452 11.5442C84.586 11.3533 84.8974 10.9738 85.1837 10.408L86.3927 8.03545H89.2175L87.7812 10.9966C87.5884 11.4098 87.3498 11.8001 87.0699 12.1601C86.7812 12.5015 86.4037 12.7563 85.9791 12.8964C86.5419 13.0733 87.0246 13.4425 87.3426 13.9395C87.4882 14.1637 87.6094 14.403 87.7039 14.6531C87.7994 14.9053 87.8858 15.1598 87.9653 15.4121L89.4356 19.8254H86.6427L85.4314 16.028C85.2087 15.3326 84.9315 14.8584 84.5997 14.6053C84.1792 14.326 83.6785 14.1927 83.1748 14.2258H81.659V19.8254H79.1433Z" fill="black"/>
<path d="M100.952 15.6735C100.965 16.3146 100.822 16.9493 100.537 17.5233C100.27 18.0492 99.888 18.5076 99.4185 18.8641C98.9359 19.2276 98.3916 19.5009 97.8119 19.6709C97.2022 19.8537 96.5689 19.9456 95.9325 19.9436C95.2848 19.9462 94.6402 19.8543 94.019 19.6709C93.4422 19.5056 92.9023 19.2318 92.4282 18.8641C91.9721 18.5035 91.6025 18.0454 91.3465 17.5233C91.0677 16.9472 90.9291 16.3133 90.942 15.6735V12.2647C90.9297 11.6228 91.0724 10.9875 91.3579 10.4126C91.6244 9.88371 92.0019 9.41862 92.4646 9.04903C92.9392 8.67694 93.4786 8.39573 94.0554 8.21955C94.6717 8.02682 95.314 7.93024 95.9597 7.93322C96.6274 7.92757 97.292 8.02492 97.93 8.22183C98.5098 8.39639 99.05 8.68197 99.5208 9.06266C99.9717 9.43191 100.334 9.89794 100.58 10.4262C100.843 11.0067 100.974 11.6387 100.962 12.276L100.952 15.6735ZM98.4368 12.7055C98.4489 12.3144 98.3711 11.9257 98.2096 11.5693C98.0716 11.2863 97.8739 11.0367 97.6301 10.8375C97.3909 10.648 97.1168 10.5075 96.8233 10.4239C96.2509 10.2482 95.639 10.2482 95.0666 10.4239C94.7732 10.5075 94.4991 10.648 94.2599 10.8375C94.0128 11.0404 93.814 11.2958 93.6781 11.5852C93.5166 11.9416 93.4388 12.3303 93.4509 12.7214V15.2212C93.4509 16.1075 93.6963 16.7325 94.1872 17.0961C94.696 17.466 95.3127 17.6577 95.9416 17.6415C96.2393 17.6397 96.5354 17.5961 96.821 17.5119C97.1142 17.4266 97.3882 17.2854 97.6278 17.0961C97.8742 16.8926 98.0729 16.6373 98.2096 16.3484C98.3711 15.992 98.4489 15.6033 98.4368 15.2121V12.7055Z" fill="black"/>
<path d="M108.931 7.93545C109.576 7.91545 110.213 8.07266 110.774 8.38996C111.272 8.68891 111.672 9.12537 111.927 9.64667C112.34 9.31858 112.773 9.01506 113.222 8.73766C113.545 8.54146 113.883 8.37124 114.233 8.22861C114.7 8.03282 115.2 7.93163 115.706 7.93091C116.918 7.93091 117.827 8.28315 118.433 8.98764C119.039 9.69212 119.342 10.7004 119.342 12.0124V19.8208H116.828V12.3737C116.828 11.6624 116.685 11.1511 116.399 10.8443C116.232 10.6835 116.033 10.5599 115.815 10.4816C115.597 10.4033 115.364 10.372 115.133 10.3898C114.71 10.4 114.294 10.5056 113.917 10.6989C113.384 10.9702 112.881 11.2961 112.415 11.6715C112.431 11.8465 112.442 12.0033 112.449 12.1465C112.456 12.2896 112.474 12.4283 112.474 12.6101V19.8254H109.947V12.326C109.947 11.5988 109.79 11.092 109.493 10.8079C109.192 10.5284 108.794 10.3762 108.384 10.383C107.95 10.3834 107.52 10.4675 107.118 10.6307C106.581 10.8677 106.069 11.1585 105.591 11.4988V19.8276H103.064V8.07862H105.336L105.548 9.28761C106.154 8.82032 106.827 8.4451 107.543 8.17407C107.991 8.02477 108.459 7.94432 108.931 7.93545Z" fill="black"/>
<path d="M123.997 14.7712V15.3643C123.987 15.728 124.059 16.0892 124.208 16.4211C124.339 16.6969 124.53 16.94 124.767 17.1324C125.006 17.319 125.281 17.4557 125.574 17.5346C125.886 17.6233 126.21 17.6677 126.535 17.6664C126.98 17.6551 127.421 17.5911 127.851 17.4755C128.427 17.316 128.954 17.0144 129.383 16.5983C129.636 16.9013 129.885 17.1899 130.13 17.4642C130.376 17.7384 130.617 18.0293 130.853 18.3368C130.272 18.9359 129.55 19.3804 128.753 19.6299C128.033 19.8414 127.286 19.9493 126.535 19.9503C125.881 19.9544 125.23 19.8664 124.601 19.689C124.018 19.5285 123.471 19.2595 122.988 18.8959C122.52 18.54 122.142 18.0801 121.883 17.5528C121.602 16.9605 121.464 16.3106 121.479 15.6552V12.5646C121.468 11.9052 121.593 11.2508 121.847 10.642C122.08 10.0899 122.431 9.59571 122.876 9.19441C123.326 8.7957 123.848 8.48711 124.415 8.28539C125.031 8.06431 125.682 7.95429 126.337 7.96042C127.005 7.95334 127.67 8.0578 128.303 8.26948C128.874 8.45893 129.401 8.76109 129.853 9.15805C130.289 9.54876 130.633 10.0316 130.86 10.5716C131.105 11.1735 131.226 11.8191 131.214 12.4691V14.7712H123.997ZM128.694 12.61C128.694 11.7889 128.467 11.192 128.012 10.8193C127.549 10.4471 126.97 10.25 126.376 10.2625C125.772 10.2478 125.184 10.452 124.719 10.8374C124.254 11.2238 124.021 11.8048 124.019 12.5805V12.96H128.694V12.61Z" fill="black"/>
<path d="M133.203 12.1601C133.203 10.8466 133.581 9.81409 134.339 9.06263C135.096 8.31118 136.09 7.93243 137.318 7.92637C137.815 7.93445 138.31 7.9785 138.8 8.05817C139.44 8.16171 140.066 8.34098 140.663 8.59222V2.83362H143.179V19.8254H140.882L140.654 18.6618C140.012 19.0735 139.326 19.412 138.609 19.6708C138.139 19.8361 137.646 19.9281 137.148 19.9435C135.936 19.9435 134.975 19.5996 134.266 18.9118C133.557 18.224 133.205 17.1521 133.209 15.6962L133.203 12.1601ZM135.718 15.5075C135.718 16.2984 135.888 16.84 136.227 17.1324C136.59 17.433 137.052 17.5891 137.523 17.571C137.759 17.5669 137.994 17.5348 138.223 17.4756C138.501 17.4077 138.775 17.3203 139.041 17.2142C139.329 17.1033 139.61 16.9766 139.884 16.8347C140.149 16.6977 140.406 16.546 140.654 16.3802V10.9966C140.148 10.7916 139.629 10.6215 139.1 10.4875C138.646 10.3729 138.18 10.3134 137.711 10.3103C137.196 10.2964 136.693 10.4736 136.3 10.8079C135.911 11.1397 135.717 11.701 135.718 12.4919V15.5075Z" fill="black"/>
<path d="M152.71 18.7573C152.043 19.1585 151.33 19.4753 150.585 19.7004C150.063 19.8436 149.524 19.92 148.983 19.9277C147.812 19.9277 146.894 19.611 146.231 18.9777C145.567 18.3445 145.235 17.4718 145.233 16.3598C145.212 15.7852 145.358 15.2168 145.654 14.7236C145.928 14.2916 146.293 13.9236 146.722 13.6441C147.148 13.3673 147.617 13.1623 148.11 13.0373C148.564 12.9179 149.03 12.8546 149.499 12.8487H152.751V12.1374C152.751 11.4397 152.551 10.9421 152.155 10.6421C151.76 10.3421 151.151 10.1876 150.337 10.1876C149.846 10.1996 149.358 10.2598 148.878 10.3671C148.234 10.5179 147.636 10.8229 147.135 11.2557L145.972 9.38083C146.674 8.82454 147.487 8.42404 148.356 8.20593C149.083 8.03274 149.828 7.94127 150.576 7.93323C152.189 7.93323 153.376 8.28926 154.135 9.00132C154.894 9.71338 155.272 10.7974 155.271 12.2533V19.8231H152.998L152.785 18.8028L152.71 18.7573ZM152.758 14.794H149.933C149.705 14.7948 149.477 14.8108 149.251 14.8417C149.024 14.871 148.803 14.9395 148.599 15.044C148.399 15.147 148.228 15.2976 148.101 15.4826C147.953 15.7164 147.883 15.9906 147.899 16.2666C147.889 16.4642 147.927 16.6612 148.01 16.8409C148.092 17.0205 148.217 17.1775 148.374 17.2983C148.739 17.5593 149.182 17.689 149.631 17.6665C149.919 17.6657 150.206 17.6298 150.485 17.5597C150.771 17.4881 151.052 17.4009 151.328 17.2983C151.596 17.1997 151.857 17.0843 152.11 16.9529C152.355 16.8287 152.573 16.7105 152.764 16.5984L152.758 14.794Z" fill="black"/>
<path d="M36.9993 7.32642L39.7967 12.1692L25.0616 20.6776C25.0616 20.6776 16.0374 26.1316 9.54932 14.8871L14.1376 12.2396C14.1376 12.2396 17.1191 18.83 22.2869 15.8371C27.4546 12.8441 36.9993 7.32642 36.9993 7.32642Z" fill="black"/>
<path d="M2.79749 14.8531L0 10.0103L15.0487 1.32243C15.0487 1.32243 24.073 -4.13165 30.5588 7.11285L25.9705 9.76035C25.9705 9.76035 22.989 3.17 17.8212 6.16293C12.6535 9.15586 2.79749 14.8531 2.79749 14.8531Z" fill="black"/>
<path d="M20.1823 14.7348C22.2131 14.7348 23.8593 13.0885 23.8593 11.0578C23.8593 9.02709 22.2131 7.38086 20.1823 7.38086C18.1516 7.38086 16.5054 9.02709 16.5054 11.0578C16.5054 13.0885 18.1516 14.7348 20.1823 14.7348Z" fill="#FF931E"/>
<path d="M7.19934 20.4753C8.25989 20.4753 9.11964 19.6156 9.11964 18.5551C9.11964 17.4945 8.25989 16.6348 7.19934 16.6348C6.1388 16.6348 5.27905 17.4945 5.27905 18.5551C5.27905 19.6156 6.1388 20.4753 7.19934 20.4753Z" fill="black"/>
<path d="M32.8312 5.67444C33.8917 5.67444 34.7515 4.8147 34.7515 3.75415C34.7515 2.69361 33.8917 1.83386 32.8312 1.83386C31.7706 1.83386 30.9109 2.69361 30.9109 3.75415C30.9109 4.8147 31.7706 5.67444 32.8312 5.67444Z" fill="black"/>
</svg>
