<svg width="1080" height="1080" viewBox="0 0 1080 1080" fill="none" xmlns="http://www.w3.org/2000/svg">
<rect width="1080" height="1080" fill="black"/>
<path d="M511.523 352.067L548.869 293L561.278 302.023L514.625 354.323L511.523 352.067Z" fill="white"/>
<path d="M537.451 349.878L582.492 296.446L593.556 307.074L540.217 352.535L537.451 349.878Z" fill="white"/>
<path d="M563.436 351.238L615.333 304.437L624.847 316.473L565.814 354.247L563.436 351.238Z" fill="white"/>
<path d="M588.993 356.125L646.78 316.827L654.566 330.046L590.94 359.43L588.993 356.125Z" fill="white"/>
<path d="M613.647 364.447L676.247 333.383L682.161 347.539L615.125 367.986L613.647 364.447Z" fill="white"/>
<path d="M636.939 376.047L703.185 353.797L707.116 368.626L637.921 379.754L636.939 376.047Z" fill="white"/>
<path d="M658.434 390.712L727.093 377.689L728.968 392.916L658.902 394.518L658.434 390.712Z" fill="white"/>
<path d="M677.731 408.166L747.524 404.613L747.308 419.954L677.677 412.001L677.731 408.166Z" fill="white"/>
<path d="M694.472 428.085L764.099 434.069L761.797 449.237L693.897 431.877L694.472 428.085Z" fill="white"/>
<path d="M708.345 450.098L776.509 465.508L772.162 480.221L707.259 453.777L708.345 450.098Z" fill="white"/>
<path d="M719.091 473.796L784.522 498.344L778.212 512.328L717.514 477.292L719.091 473.796Z" fill="white"/>
<path d="M726.511 498.737L787.989 531.966L779.835 544.961L724.472 501.986L726.511 498.737Z" fill="white"/>
<path d="M730.465 524.455L786.846 565.745L776.998 577.509L728.003 527.396L730.465 524.455Z" fill="white"/>
<path d="M730.88 550.472L781.114 599.054L769.755 609.368L728.041 553.05L730.88 550.472Z" fill="white"/>
<path d="M727.749 576.303L770.9 631.273L758.243 639.943L724.585 578.47L727.749 576.303Z" fill="white"/>
<path d="M721.13 601.467L756.393 661.801L742.674 668.667L717.7 603.183L721.13 601.467Z" fill="white"/>
<path d="M711.146 625.497L737.866 690.071L723.339 695.005L707.515 626.73L711.146 625.497Z" fill="white"/>
<path d="M697.983 647.941L715.661 715.552L700.597 718.462L694.217 648.668L697.983 647.941Z" fill="white"/>
<path d="M681.886 668.386L690.193 737.774L674.874 738.606L678.056 668.594L681.886 668.386Z" fill="white"/>
<path d="M663.155 686.448L661.936 756.321L646.646 755.059L659.333 686.132L663.155 686.448Z" fill="white"/>
<path d="M642.14 701.79L631.418 770.846L616.442 767.514L638.396 700.957L642.14 701.79Z" fill="white"/>
<path d="M619.231 714.128L599.206 781.081L584.823 775.741L615.635 712.793L619.231 714.128Z" fill="white"/>
<path d="M594.855 723.232L565.899 786.834L552.378 779.585L591.474 721.42L594.855 723.232Z" fill="white"/>
<path d="M569.467 728.933L532.12 788L519.712 778.977L566.365 726.677L569.467 728.933Z" fill="white"/>
<path d="M543.539 731.122L498.497 784.554L487.433 773.925L540.773 728.465L543.539 731.122Z" fill="white"/>
<path d="M517.554 729.762L465.656 776.563L456.142 764.527L515.175 726.753L517.554 729.762Z" fill="white"/>
<path d="M491.996 724.875L434.209 764.173L426.423 750.954L490.05 721.57L491.996 724.875Z" fill="white"/>
<path d="M467.342 716.553L404.743 747.617L398.829 733.461L465.864 713.014L467.342 716.553Z" fill="white"/>
<path d="M444.051 704.953L377.804 727.203L373.873 712.374L443.068 701.246L444.051 704.953Z" fill="white"/>
<path d="M422.556 690.288L353.897 703.311L352.021 688.084L422.087 686.482L422.556 690.288Z" fill="white"/>
<path d="M403.259 672.834L333.465 676.387L333.681 661.046L403.313 668.999L403.259 672.834Z" fill="white"/>
<path d="M386.517 652.915L316.89 646.931L319.193 631.763L387.093 649.123L386.517 652.915Z" fill="white"/>
<path d="M372.644 630.902L304.481 615.492L308.827 600.779L373.731 627.223L372.644 630.902Z" fill="white"/>
<path d="M361.897 607.204L296.467 582.656L302.777 568.672L363.475 603.708L361.897 607.204Z" fill="white"/>
<path d="M354.478 582.263L293 549.034L301.155 536.039L356.517 579.014L354.478 582.263Z" fill="white"/>
<path d="M350.524 556.545L294.143 515.255L303.992 503.491L352.986 553.604L350.524 556.545Z" fill="white"/>
<path d="M350.109 530.528L299.876 481.945L311.234 471.632L352.949 527.95L350.109 530.528Z" fill="white"/>
<path d="M353.24 504.697L310.09 449.727L322.747 441.057L356.404 502.53L353.24 504.697Z" fill="white"/>
<path d="M359.859 479.533L324.596 419.199L338.316 412.333L363.289 477.817L359.859 479.533Z" fill="white"/>
<path d="M369.843 455.503L343.124 390.929L357.651 385.995L373.475 454.27L369.843 455.503Z" fill="white"/>
<path d="M383.006 433.059L365.329 365.448L380.392 362.538L386.772 432.332L383.006 433.059Z" fill="white"/>
<path d="M399.103 412.614L390.796 343.226L406.116 342.394L402.933 412.406L399.103 412.614Z" fill="white"/>
<path d="M417.834 394.552L419.053 324.679L434.343 325.941L421.657 394.868L417.834 394.552Z" fill="white"/>
<path d="M438.85 379.21L449.572 310.154L464.547 313.486L442.593 380.043L438.85 379.21Z" fill="white"/>
<path d="M461.759 366.872L481.784 299.919L496.166 305.259L465.354 368.207L461.759 366.872Z" fill="white"/>
<path d="M486.135 357.768L515.09 294.165L528.612 301.415L489.515 359.58L486.135 357.768Z" fill="white"/>
</svg>
