<svg width="1080" height="1080" viewBox="0 0 1080 1080" fill="none" xmlns="http://www.w3.org/2000/svg">
<path d="M493.437 239.913L552.815 146L572.543 160.346L498.369 243.499L493.437 239.913Z" fill="white"/>
<path d="M534.66 236.432L606.273 151.479L623.864 168.377L539.058 240.657L534.66 236.432Z" fill="white"/>
<path d="M575.974 238.594L658.488 164.184L673.615 183.32L579.756 243.378L575.974 238.594Z" fill="white"/>
<path d="M616.609 246.365L708.487 183.883L720.866 204.901L619.704 251.619L616.609 246.365Z" fill="white"/>
<path d="M655.807 259.595L755.337 210.206L764.739 232.714L658.158 265.222L655.807 259.595Z" fill="white"/>
<path d="M692.839 278.039L798.167 242.662L804.417 266.241L694.402 283.934L692.839 278.039Z" fill="white"/>
<path d="M727.015 301.355L836.179 280.65L839.16 304.86L727.76 307.407L727.015 301.355Z" fill="white"/>
<path d="M757.696 329.106L868.663 323.458L868.32 347.848L757.61 335.203L757.696 329.106Z" fill="white"/>
<path d="M784.314 360.776L895.016 370.291L891.355 394.407L783.399 366.805L784.314 360.776Z" fill="white"/>
<path d="M806.371 395.776L914.746 420.276L907.836 443.669L804.643 401.624L806.371 395.776Z" fill="white"/>
<path d="M823.457 433.454L927.486 472.483L917.455 494.718L820.949 439.013L823.457 433.454Z" fill="white"/>
<path d="M835.254 473.108L933 525.939L920.034 546.601L832.012 478.274L835.254 473.108Z" fill="white"/>
<path d="M841.54 513.998L931.182 579.646L915.524 598.35L837.626 518.673L841.54 513.998Z" fill="white"/>
<path d="M842.2 555.363L922.068 632.606L904.009 649.003L837.686 559.462L842.2 555.363Z" fill="white"/>
<path d="M837.222 596.432L905.828 683.831L885.704 697.617L832.191 599.878L837.222 596.432Z" fill="white"/>
<path d="M826.698 636.442L882.764 732.369L860.951 743.285L821.245 639.171L826.698 636.442Z" fill="white"/>
<path d="M810.825 674.648L853.307 777.316L830.21 785.16L805.05 676.609L810.825 674.648Z" fill="white"/>
<path d="M789.896 710.332L818.002 817.829L794.052 822.455L783.909 711.489L789.896 710.332Z" fill="white"/>
<path d="M764.303 742.838L777.51 853.161L753.153 854.483L758.214 743.169L764.303 742.838Z" fill="white"/>
<path d="M734.522 771.555L732.584 882.649L708.274 880.642L728.444 771.054L734.522 771.555Z" fill="white"/>
<path d="M701.109 795.949L684.062 905.743L660.251 900.445L695.156 794.624L701.109 795.949Z" fill="white"/>
<path d="M664.685 815.566L632.846 922.016L609.979 913.525L658.968 813.443L664.685 815.566Z" fill="white"/>
<path d="M625.929 830.04L579.891 931.164L558.393 919.638L620.554 827.158L625.929 830.04Z" fill="white"/>
<path d="M585.563 839.104L526.185 933.017L506.457 918.671L580.631 835.517L585.563 839.104Z" fill="white"/>
<path d="M544.34 842.584L472.727 927.537L455.136 910.639L539.942 838.36L544.34 842.584Z" fill="white"/>
<path d="M503.025 840.422L420.512 914.833L405.385 895.697L499.244 835.638L503.025 840.422Z" fill="white"/>
<path d="M462.391 832.652L370.513 895.134L358.134 874.116L459.296 827.397L462.391 832.652Z" fill="white"/>
<path d="M423.193 819.421L323.663 868.81L314.261 846.303L420.842 813.794L423.193 819.421Z" fill="white"/>
<path d="M386.161 800.978L280.833 836.354L274.583 812.776L384.598 795.083L386.161 800.978Z" fill="white"/>
<path d="M351.985 777.662L242.821 798.367L239.84 774.157L351.24 771.609L351.985 777.662Z" fill="white"/>
<path d="M321.304 749.911L210.337 755.559L210.68 731.168L321.39 743.814L321.304 749.911Z" fill="white"/>
<path d="M294.686 718.241L183.984 708.726L187.645 684.61L295.601 712.212L294.686 718.241Z" fill="white"/>
<path d="M272.629 683.241L164.254 658.741L171.164 635.347L274.357 677.392L272.629 683.241Z" fill="white"/>
<path d="M255.542 645.563L151.513 606.534L161.544 584.299L258.05 640.004L255.542 645.563Z" fill="white"/>
<path d="M243.746 605.908L146 553.077L158.966 532.416L246.988 600.743L243.746 605.908Z" fill="white"/>
<path d="M237.46 565.019L147.818 499.37L163.476 480.667L241.374 560.343L237.46 565.019Z" fill="white"/>
<path d="M236.8 523.654L156.932 446.411L174.991 430.014L241.314 519.555L236.8 523.654Z" fill="white"/>
<path d="M241.778 482.585L173.172 395.185L193.296 381.4L246.809 479.138L241.778 482.585Z" fill="white"/>
<path d="M252.302 442.575L196.236 346.648L218.049 335.731L257.755 439.846L252.302 442.575Z" fill="white"/>
<path d="M268.175 404.369L225.693 301.701L248.79 293.856L273.949 402.408L268.175 404.369Z" fill="white"/>
<path d="M289.104 368.684L260.998 261.188L284.948 256.561L295.091 367.528L289.104 368.684Z" fill="white"/>
<path d="M314.697 336.178L301.49 225.856L325.847 224.534L320.786 335.848L314.697 336.178Z" fill="white"/>
<path d="M344.478 307.461L346.416 196.368L370.726 198.375L350.556 307.963L344.478 307.461Z" fill="white"/>
<path d="M377.891 283.068L394.938 173.274L418.749 178.572L383.844 284.393L377.891 283.068Z" fill="white"/>
<path d="M414.315 263.451L446.154 157L469.021 165.491L420.032 265.574L414.315 263.451Z" fill="white"/>
<path d="M453.071 248.977L499.109 147.853L520.607 159.379L458.446 251.858L453.071 248.977Z" fill="white"/>
</svg>
