<svg preserveAspectRatio="xMidYMid meet" viewBox="0 0 132 24" fill="black" xmlns="http://www.w3.org/2000/svg">
<path fill-rule="evenodd" clip-rule="evenodd" d="M16.5403 3.54909L13.9055 2.02805L10.3896 4.0561V0L7.75481 1.52104L7.75481 4.0561L7.75481 8.62338L11.7112 6.34182L16.5403 3.54909ZM18.1486 4.47584L20.7834 6.00104L17.2675 8.02909L20.7834 10.0571L20.7834 13.0992L15.9501 10.3106L11.9979 8.02909L15.9501 5.74338L18.1486 4.47584ZM14.6327 11.4036V15.9709L14.6327 21.5481L17.2675 20.027V15.9709L20.7834 17.999V14.9527L18.5891 13.6894L14.6327 11.4036ZM4.24312 20.4468L6.87792 21.9719L10.3896 19.9397L10.3896 24L13.0286 22.4748V19.9397L13.0286 15.3766L9.07221 17.6582L4.24312 20.4468ZM6.15065 8.02909L6.15065 12.5922L2.19429 10.3106L0 9.04312L0 6.00104L3.51169 8.02909L3.51169 3.97299L6.15065 2.44779L6.15065 8.02909ZM8.78546 15.9709L4.83325 13.6893L0 10.8966L0 13.9429L3.51169 15.9709L0 17.999L2.63481 19.52L4.83325 18.2525L8.78546 15.9709ZM66.3999 6.85067H68.7476V3.75L66.8429 3.75C63.0999 3.75 61.3503 5.43322 61.3503 8.4453V8.84396L59.2241 8.84396V11.9446L61.3503 11.9446V16.9279H59.2241V20.0285H68.1275V16.9279H64.8939V11.9446H68.1275V8.84396H64.8939V8.55604C64.8939 7.31577 65.359 6.85067 66.3999 6.85067ZM53.9145 14.5359C53.9145 12.4983 53.3166 11.7232 51.6112 11.7232C49.6843 11.7232 48.4219 12.7419 48.4219 15.8869V20.0285H44.8783V8.84396H48.4219V10.195L47.7575 12.1883H48.6434C49.0864 10.195 50.4817 8.62248 52.8736 8.62248C55.7307 8.62248 57.4582 10.5272 57.4582 13.9822V20.0285L53.9145 20.0285V14.5359ZM34.077 14.3366C34.077 16.3742 34.675 17.1493 36.3804 17.1493C38.3072 17.1493 39.5696 16.1305 39.5696 12.9856V8.84396L43.1132 8.84396V20.0285L39.5696 20.0285V18.6775L40.234 16.6842H39.3481C38.9052 18.6775 37.5099 20.25 35.1179 20.25C32.2609 20.25 30.5334 18.3453 30.5334 14.8903L30.5334 8.84396H34.077V14.3366ZM73.6192 20.0285H70.0756V10.5272C70.0756 9.30906 70.7622 8.64463 71.9803 8.66678L79.3111 8.84396V11.9446L73.6192 11.8117V20.0285ZM80.209 14.2923C80.209 17.4594 82.1801 20.25 86.4768 20.25C90.3526 20.25 92.1909 17.703 92.4124 16.0862H88.8687C88.6473 16.9279 87.717 17.3708 86.4768 17.3708C84.4613 17.3708 83.5311 16.4628 83.5311 15.1782L92.0137 15.1782V14.0708C92.0137 10.6822 89.5775 8.62248 86.1003 8.62248C82.6231 8.62248 80.209 10.7487 80.209 14.2923ZM83.5311 13.1849C83.5311 12.3433 84.1291 11.5017 86.1003 11.5017C88.0714 11.5017 88.6915 12.3433 88.6915 13.1849L83.5311 13.1849ZM99.7784 20.25C95.4817 20.25 93.5106 17.4594 93.5106 14.2923C93.5106 10.7487 95.9247 8.62248 99.4018 8.62248C102.879 8.62248 105.315 10.6822 105.315 14.0708V15.1782L96.8327 15.1782C96.8327 16.4628 97.7629 17.3708 99.7784 17.3708C101.019 17.3708 101.949 16.9279 102.17 16.0862H105.714C105.492 17.703 103.654 20.25 99.7784 20.25ZM99.4018 11.5017C97.4307 11.5017 96.8327 12.3433 96.8327 13.1849H101.993C101.993 12.3433 101.373 11.5017 99.4018 11.5017ZM107.05 20.0285H118.057V16.9279H109.929L107.936 17.5923V16.7064L118.057 14.8238V8.84396L107.05 8.84396V11.9446H115.178L117.172 11.2802V12.1661L107.05 14.0487V20.0285ZM125.668 20.25C121.371 20.25 119.4 17.4594 119.4 14.2923C119.4 10.7487 121.814 8.62248 125.291 8.62248C128.768 8.62248 131.205 10.6822 131.205 14.0708V15.1782L122.722 15.1782C122.722 16.4628 123.652 17.3708 125.668 17.3708C126.908 17.3708 127.838 16.9279 128.06 16.0862L131.603 16.0862C131.382 17.703 129.544 20.25 125.668 20.25ZM125.291 11.5017C123.32 11.5017 122.722 12.3433 122.722 13.1849L127.882 13.1849C127.882 12.3433 127.262 11.5017 125.291 11.5017Z" fill="black"></path>
</svg>
